<?xml version="1.0" encoding="iso-8859-1"?>
<!-- Generator: Adobe Illustrator 20.1.0, SVG Export Plug-In . SVG Version: 6.00 Build 0)  -->
<svg xmlns="http://www.w3.org/2000/svg" xmlns:xlink="http://www.w3.org/1999/xlink" version="1.1" id="&#1057;&#1083;&#1086;&#1081;_1" x="0px" y="0px" viewBox="0 0 64 64" style="enable-background:new 0 0 64 64;" xml:space="preserve">
<linearGradient id="SVGID_1__44851" gradientUnits="userSpaceOnUse" x1="31.7208" y1="5.1241" x2="32.2208" y2="58.6241" spreadMethod="reflect">
	<stop offset="0" style="stop-color:#1A6DFF"/>
	<stop offset="1" style="stop-color:#C822FF"/>
</linearGradient>
<path style="fill:url(#SVGID_1__44851);" d="M49,12h-7.184c-0.414-1.162-1.514-2-2.816-2h-3c0-2.206-1.794-4-4-4s-4,1.794-4,4h-3  c-1.302,0-2.402,0.838-2.816,2H15c-1.654,0-3,1.346-3,3v40c0,1.654,1.346,3,3,3h34c1.654,0,3-1.346,3-3V15  C52,13.346,50.654,12,49,12z M42,18h4v31H18V18h4h1h5c0,1.103,0.897,2,2,2h4c1.103,0,2-0.897,2-2h5H42z M20,51h24v1H20V51z M32,8  c1.103,0,2,0.897,2,2h-4C30,8.897,30.897,8,32,8z M24,13c0-0.552,0.448-1,1-1h14c0.552,0,1,0.448,1,1v3h-6v2h-4v-2h-6V13z M50,55  c0,0.552-0.448,1-1,1H15c-0.552,0-1-0.448-1-1V15c0-0.552,0.448-1,1-1h7v2h-4c-1.103,0-2,0.897-2,2v31c0,1.103,0.897,2,2,2v1  c0,1.103,0.897,2,2,2h24c1.103,0,2-0.897,2-2v-1c1.103,0,2-0.897,2-2V18c0-1.103-0.897-2-2-2h-4v-2h7c0.552,0,1,0.448,1,1V55z"/>
<linearGradient id="SVGID_2__44851" gradientUnits="userSpaceOnUse" x1="38.7762" y1="5.0582" x2="39.2762" y2="58.5582" spreadMethod="reflect">
	<stop offset="0" style="stop-color:#1A6DFF"/>
	<stop offset="1" style="stop-color:#C822FF"/>
</linearGradient>
<path style="fill:url(#SVGID_2__44851);" d="M36,30c0,1.103,0.897,2,2,2h2c1.103,0,2-0.897,2-2v-2c0-1.103-0.897-2-2-2h-2  c-1.103,0-2,0.897-2,2V30z M38,28h2l0.002,2H38V28z"/>
<linearGradient id="SVGID_3__44851" gradientUnits="userSpaceOnUse" x1="27.7959" y1="5.1608" x2="28.2959" y2="58.6608" spreadMethod="reflect">
	<stop offset="0" style="stop-color:#1A6DFF"/>
	<stop offset="1" style="stop-color:#C822FF"/>
</linearGradient>
<rect x="22" y="26" style="fill:url(#SVGID_3__44851);" width="12" height="2"/>
<linearGradient id="SVGID_4__44851" gradientUnits="userSpaceOnUse" x1="26.7586" y1="5.1705" x2="27.2586" y2="58.6705" spreadMethod="reflect">
	<stop offset="0" style="stop-color:#1A6DFF"/>
	<stop offset="1" style="stop-color:#C822FF"/>
</linearGradient>
<rect x="22" y="30" style="fill:url(#SVGID_4__44851);" width="10" height="2"/>
<linearGradient id="SVGID_5__44851" gradientUnits="userSpaceOnUse" x1="38.6828" y1="5.059" x2="39.1828" y2="58.559" spreadMethod="reflect">
	<stop offset="0" style="stop-color:#1A6DFF"/>
	<stop offset="1" style="stop-color:#C822FF"/>
</linearGradient>
<path style="fill:url(#SVGID_5__44851);" d="M40,36h-2c-1.103,0-2,0.897-2,2v2c0,1.103,0.897,2,2,2h2c1.103,0,2-0.897,2-2v-2  C42,36.897,41.103,36,40,36z M38,40v-2h2l0.002,2H38z"/>
<linearGradient id="SVGID_6__44851" gradientUnits="userSpaceOnUse" x1="27.7024" y1="5.1617" x2="28.2024" y2="58.6617" spreadMethod="reflect">
	<stop offset="0" style="stop-color:#1A6DFF"/>
	<stop offset="1" style="stop-color:#C822FF"/>
</linearGradient>
<rect x="22" y="36" style="fill:url(#SVGID_6__44851);" width="12" height="2"/>
<linearGradient id="SVGID_7__44851" gradientUnits="userSpaceOnUse" x1="26.6652" y1="5.1714" x2="27.1652" y2="58.6714" spreadMethod="reflect">
	<stop offset="0" style="stop-color:#1A6DFF"/>
	<stop offset="1" style="stop-color:#C822FF"/>
</linearGradient>
<rect x="22" y="40" style="fill:url(#SVGID_7__44851);" width="10" height="2"/>
<linearGradient id="SVGID_8__44851" gradientUnits="userSpaceOnUse" x1="39" y1="27.3333" x2="39" y2="30.7753" spreadMethod="reflect">
	<stop offset="0" style="stop-color:#6DC7FF"/>
	<stop offset="1" style="stop-color:#E6ABFF"/>
</linearGradient>
<rect x="38" y="28" style="fill:url(#SVGID_8__44851);" width="2" height="2"/>
<linearGradient id="SVGID_9__44851" gradientUnits="userSpaceOnUse" x1="39" y1="37.6667" x2="39" y2="40.5" spreadMethod="reflect">
	<stop offset="0" style="stop-color:#6DC7FF"/>
	<stop offset="1" style="stop-color:#E6ABFF"/>
</linearGradient>
<rect x="38" y="38" style="fill:url(#SVGID_9__44851);" width="2" height="2"/>
<linearGradient id="SVGID_10__44851" gradientUnits="userSpaceOnUse" x1="32" y1="50" x2="32" y2="53.194" spreadMethod="reflect">
	<stop offset="0" style="stop-color:#6DC7FF"/>
	<stop offset="1" style="stop-color:#E6ABFF"/>
</linearGradient>
<rect x="20" y="51" style="fill:url(#SVGID_10__44851);" width="24" height="1"/>
</svg>
